<svg width="5232" height="945" viewBox="0 0 5232 945" fill="none" xmlns="http://www.w3.org/2000/svg">
<g clip-path="url(#clip0_6_2)">
<path d="M628.283 286.856C666.751 286.856 699.723 290.104 727.2 296.598C754.677 302.843 777.159 312.335 794.644 325.074C812.379 337.564 825.244 353.176 833.237 371.91C841.48 390.645 845.602 412.501 845.602 437.481V714H747.433V460.711C747.433 446.723 745.56 434.733 741.813 424.741C738.066 414.5 732.946 405.882 726.451 398.888C720.206 391.644 712.837 385.774 704.344 381.278C695.851 376.781 686.984 373.409 677.742 371.161C668.749 368.663 659.507 367.039 650.015 366.29C640.523 365.291 631.53 364.791 623.037 364.791C607.051 364.791 591.813 365.915 577.325 368.163C562.837 370.412 549.099 373.534 536.11 377.531C523.121 381.278 510.881 385.774 499.39 391.019C487.9 396.265 477.159 401.76 467.167 407.506V714H368.999V143.726H467.167V336.315C478.658 329.321 490.398 322.826 502.388 316.831C514.378 310.836 526.867 305.591 539.857 301.094C553.096 296.598 566.959 293.101 581.447 290.603C596.185 288.105 611.797 286.856 628.283 286.856ZM1049.43 540.145C1049.43 554.133 1051.31 566.248 1055.05 576.49C1058.8 586.481 1063.92 595.099 1070.41 602.343C1076.91 609.337 1084.28 615.083 1092.52 619.579C1101.01 624.075 1109.88 627.572 1119.12 630.07C1128.37 632.318 1137.73 633.942 1147.23 634.941C1156.72 635.69 1165.83 636.065 1174.58 636.065C1206.3 636.065 1235.15 631.943 1261.13 623.7C1287.11 615.457 1310.21 605.341 1330.45 593.351V286.856L1427.12 294.35V732.734C1427.12 750.47 1423.37 766.956 1415.88 782.193C1408.38 797.43 1397.52 810.544 1383.28 821.535C1369.04 832.776 1351.55 841.519 1330.82 847.763C1310.09 854.008 1286.48 857.131 1260.01 857.131V791.935C1270 791.935 1279.24 790.936 1287.73 788.937C1296.23 786.939 1303.59 783.817 1309.84 779.57C1316.33 775.574 1321.33 770.453 1324.83 764.208C1328.57 758.213 1330.45 751.219 1330.45 743.226V664.541C1318.71 671.785 1306.72 678.405 1294.48 684.4C1282.49 690.395 1269.87 695.64 1256.63 700.137C1243.39 704.383 1229.53 707.755 1215.04 710.253C1200.56 712.751 1185.32 714 1169.33 714C1130.61 714 1097.52 710.878 1070.04 704.633C1042.56 698.138 1019.96 688.646 1002.22 676.157C984.736 663.417 971.871 647.68 963.628 628.946C955.385 610.212 951.263 588.355 951.263 563.376V294.35L1049.43 286.856V540.145ZM1547.02 309.338C1554.01 307.339 1564.25 304.841 1577.74 301.844C1591.48 298.846 1607.72 296.099 1626.45 293.601C1645.18 290.853 1666.04 288.605 1689.02 286.856C1712.25 284.858 1737.11 283.859 1763.59 283.859C1810.55 283.859 1851.89 287.356 1887.61 294.35C1923.58 301.344 1953.68 313.209 1977.91 329.945C2002.14 346.681 2020.37 368.913 2032.61 396.64C2045.1 424.367 2051.35 458.963 2051.35 500.428C2051.35 541.144 2044.6 575.241 2031.11 602.718C2017.62 629.945 1999.14 651.802 1975.66 668.288C1952.18 684.774 1924.7 696.515 1893.23 703.509C1861.75 710.503 1828.03 714 1792.06 714C1762.59 714 1735.23 712.251 1710.01 708.754C1684.78 705.257 1662.42 699.512 1642.94 691.519V856.381H1547.02V309.338ZM1768.08 364.042C1751.85 364.042 1737.36 364.541 1724.62 365.541C1712.13 366.54 1700.76 367.914 1690.52 369.662C1680.53 371.161 1671.66 373.034 1663.92 375.283C1656.18 377.281 1649.18 379.529 1642.94 382.027V621.827C1653.68 624.824 1663.67 627.322 1672.91 629.321C1682.4 631.069 1692.52 632.443 1703.26 633.442C1714.25 634.441 1726.74 635.191 1740.73 635.69C1754.97 635.94 1772.08 636.065 1792.06 636.065C1821.54 636.065 1846.64 632.693 1867.37 625.948C1888.36 618.954 1905.47 609.462 1918.71 597.472C1932.2 585.482 1942.06 571.244 1948.31 554.758C1954.55 538.022 1957.67 519.912 1957.67 500.428C1957.67 473.95 1953.43 451.969 1944.93 434.483C1936.44 416.998 1924.08 403.009 1907.84 392.518C1891.6 382.027 1871.75 374.658 1848.27 370.412C1824.78 366.165 1798.06 364.042 1768.08 364.042ZM2245.43 714H2150.26V286.856H2245.43V714ZM2198.22 138.48C2216.71 138.48 2231.32 141.602 2242.06 147.847C2252.8 153.842 2258.17 163.459 2258.17 176.698V195.433C2258.17 207.423 2252.8 216.04 2242.06 221.286C2231.32 226.532 2216.71 229.154 2198.22 229.154C2180.49 229.154 2166.13 226.532 2155.13 221.286C2144.39 216.04 2139.02 207.423 2139.02 195.433V176.698C2139.02 163.459 2144.39 153.842 2155.13 147.847C2166.13 141.602 2180.49 138.48 2198.22 138.48ZM2615.63 423.243L2698.81 286.856H2727.28C2749.76 288.105 2769.75 289.729 2787.23 291.727C2804.72 293.726 2819.58 295.724 2831.82 297.722C2846.06 299.97 2858.67 302.343 2869.66 304.841V391.769C2863.17 388.272 2854.68 385.149 2844.18 382.402C2833.69 379.404 2822.45 377.031 2810.46 375.283C2798.72 373.284 2786.86 371.785 2774.87 370.786C2762.88 369.787 2752.01 369.288 2742.27 369.288L2662.09 500.428L2742.27 631.569C2752.01 631.569 2762.88 631.069 2774.87 630.07C2786.86 629.071 2798.72 627.697 2810.46 625.948C2822.45 623.95 2833.69 621.577 2844.18 618.829C2854.68 615.832 2863.17 612.585 2869.66 609.088V696.015C2858.67 698.513 2846.06 700.886 2831.82 703.134C2819.58 705.132 2804.72 707.131 2787.23 709.129C2769.75 711.127 2749.76 712.751 2727.28 714H2698.81L2615.63 578.363L2533.19 714H2504.72C2482.24 712.751 2462.25 711.127 2444.77 709.129C2427.28 707.131 2412.42 705.132 2400.18 703.134C2385.94 700.886 2373.33 698.513 2362.34 696.015V609.088C2368.58 612.585 2376.95 615.832 2387.44 618.829C2397.93 621.577 2409.05 623.95 2420.79 625.948C2432.78 627.697 2444.77 629.071 2456.76 630.07C2469 631.069 2479.99 631.569 2489.73 631.569L2569.16 500.428L2489.73 369.288C2479.99 369.288 2469 369.787 2456.76 370.786C2444.77 371.785 2432.78 373.284 2420.79 375.283C2409.05 377.031 2397.93 379.404 2387.44 382.402C2376.95 385.149 2368.58 388.272 2362.34 391.769V304.841C2373.33 302.343 2385.94 299.97 2400.18 297.722C2412.42 295.724 2427.28 293.726 2444.77 291.727C2462.25 289.729 2482.24 288.105 2504.72 286.856H2533.19L2615.63 423.243ZM3235.36 286.856C3248.1 286.856 3263.46 287.481 3281.45 288.73C3299.43 289.979 3318.04 292.227 3337.27 295.474C3356.76 298.472 3375.99 302.843 3394.98 308.588C3413.96 314.084 3430.95 321.203 3445.93 329.945C3461.17 338.688 3473.41 349.304 3482.65 361.794C3492.14 374.034 3496.89 388.521 3496.89 405.258V531.902H3067.5V627.822C3097.72 632.068 3126.82 635.066 3154.8 636.814C3182.78 638.313 3209.63 639.063 3235.36 639.063C3274.58 639.063 3310.05 637.564 3341.77 634.566C3373.74 631.569 3401.35 628.197 3424.58 624.45C3451.3 620.203 3475.41 615.332 3496.89 609.837V693.018C3449.43 700.511 3403.59 705.882 3359.38 709.129C3315.42 712.376 3274.08 714 3235.36 714C3196.39 714 3161.05 713.001 3129.32 711.003C3097.6 708.754 3070.37 706.256 3047.64 703.509C3021.16 700.511 2997.31 697.014 2976.07 693.018V405.258C2976.07 388.521 2980.2 374.034 2988.44 361.794C2996.68 349.304 3007.67 338.688 3021.41 329.945C3035.15 321.203 3050.89 314.084 3068.62 308.588C3086.61 302.843 3105.22 298.472 3124.45 295.474C3143.69 292.227 3162.79 289.979 3181.78 288.73C3201.01 287.481 3218.87 286.856 3235.36 286.856ZM3067.5 471.952H3403.97V428.488C3403.97 418.247 3401.47 409.504 3396.47 402.26C3391.48 394.766 3384.73 388.521 3376.24 383.526C3368 378.53 3358.26 374.533 3347.02 371.536C3336.02 368.288 3324.53 365.915 3312.54 364.417C3300.55 362.668 3288.44 361.544 3276.2 361.044C3264.21 360.545 3252.84 360.295 3242.1 360.295C3230.86 360.295 3218.75 360.545 3205.76 361.044C3193.02 361.544 3180.15 362.668 3167.17 364.417C3154.18 366.165 3141.69 368.663 3129.7 371.91C3117.71 374.908 3107.09 379.029 3097.85 384.275C3088.61 389.271 3081.24 395.516 3075.74 403.009C3070.25 410.253 3067.5 418.996 3067.5 429.238V471.952ZM3709.71 714H3624.28V151.219H3709.71V714ZM3927.03 588.105C3936.02 588.105 3944.89 588.854 3953.63 590.353C3962.63 591.852 3970.62 594.1 3977.61 597.098C3984.61 600.095 3990.23 603.967 3994.48 608.713C3998.97 613.459 4001.22 619.079 4001.22 625.574V680.278C4001.22 686.273 3998.97 691.394 3994.48 695.64C3990.23 699.887 3984.61 703.384 3977.61 706.132C3970.62 708.879 3962.63 710.878 3953.63 712.127C3944.89 713.376 3936.02 714 3927.03 714C3918.04 714 3909.17 713.376 3900.43 712.127C3891.69 710.878 3883.82 708.879 3876.82 706.132C3869.83 703.384 3864.21 699.887 3859.96 695.64C3855.72 691.394 3853.59 686.273 3853.59 680.278V625.574C3853.59 619.079 3855.72 613.459 3859.96 608.713C3864.21 603.967 3869.83 600.095 3876.82 597.098C3883.82 594.1 3891.69 591.852 3900.43 590.353C3909.17 588.854 3918.04 588.105 3927.03 588.105ZM4228.28 281.611H4323.45V344.558H4228.28V714H4139.1V344.558H4068.66V281.611H4139.1V151.219H4228.28V281.611ZM4648.68 286.856C4678.4 286.856 4707.38 288.73 4735.61 292.477C4763.83 295.974 4789.19 302.094 4811.67 310.836C4834.15 319.329 4852.63 330.944 4867.12 345.682C4881.61 360.42 4890.23 378.78 4892.98 400.761L4806.05 424.741C4806.05 411.752 4801.55 401.011 4792.56 392.518C4783.82 383.775 4772.08 377.031 4757.34 372.285C4742.85 367.289 4726.12 363.792 4707.13 361.794C4688.15 359.795 4668.66 358.796 4648.68 358.796C4629.45 358.796 4610.34 359.795 4591.35 361.794C4572.62 363.542 4555.76 366.914 4540.77 371.91C4526.03 376.656 4514.04 383.276 4504.8 391.769C4495.81 400.262 4491.31 411.253 4491.31 424.741V470.453H4892.98V600.095C4892.98 614.833 4889.73 627.947 4883.23 639.437C4876.74 650.678 4867.75 660.545 4856.26 669.038C4844.77 677.281 4831.15 684.4 4815.42 690.395C4799.93 696.14 4783.07 700.761 4764.83 704.258C4746.85 707.755 4727.86 710.253 4707.88 711.752C4688.15 713.251 4668.41 714 4648.68 714C4618.45 714 4589.23 712.251 4561 708.754C4532.78 705.008 4507.42 698.888 4484.94 690.395C4462.46 681.652 4443.98 670.037 4429.49 655.549C4415.25 640.811 4406.88 622.326 4404.38 600.095L4491.31 576.115C4491.31 589.854 4495.81 600.969 4504.8 609.462C4514.04 617.955 4526.03 624.575 4540.77 629.321C4555.76 634.067 4572.62 637.314 4591.35 639.063C4610.34 640.561 4629.45 641.311 4648.68 641.311C4668.66 641.311 4688.15 640.436 4707.13 638.688C4726.12 636.689 4742.85 633.317 4757.34 628.571C4772.08 623.575 4783.82 616.956 4792.56 608.713C4801.55 600.22 4806.05 589.354 4806.05 576.115V530.403H4404.38V400.761C4404.38 386.024 4407.63 373.034 4414.13 361.794C4420.62 350.303 4429.49 340.437 4440.73 332.193C4452.22 323.701 4465.71 316.581 4481.19 310.836C4496.68 304.841 4513.42 300.095 4531.4 296.598C4549.64 293.101 4568.62 290.603 4588.35 289.104C4608.34 287.606 4628.45 286.856 4648.68 286.856Z" fill="#2176FF"/>
</g>
<defs>
<clipPath id="clip0_6_2">
<rect width="5232" height="945" fill="white"/>
</clipPath>
</defs>
</svg>
