<svg width="70" height="70" viewBox="0 0 70 70" fill="none" xmlns="http://www.w3.org/2000/svg">
<g clip-path="url(#clip0_5_4)">
<rect width="70" height="70" fill="#2176FF"/>
<path d="M19.3701 29.7539C20.473 29.7539 21.4183 29.847 22.2061 30.0332C22.9938 30.2122 23.6383 30.4844 24.1396 30.8496C24.6481 31.2077 25.0169 31.6553 25.2461 32.1924C25.4824 32.7295 25.6006 33.3561 25.6006 34.0723V42H22.7861V34.7383C22.7861 34.3372 22.7324 33.9935 22.625 33.707C22.5176 33.4134 22.3708 33.1663 22.1846 32.9658C22.0055 32.7581 21.7943 32.5898 21.5508 32.4609C21.3073 32.332 21.0531 32.2354 20.7881 32.1709C20.5303 32.0993 20.2653 32.0527 19.9932 32.0312C19.721 32.0026 19.4632 31.9883 19.2197 31.9883C18.7614 31.9883 18.3245 32.0205 17.9092 32.085C17.4938 32.1494 17.0999 32.2389 16.7275 32.3535C16.3551 32.4609 16.0042 32.5898 15.6748 32.7402C15.3454 32.8906 15.0374 33.0482 14.751 33.2129V42H11.9365V25.6504H14.751V31.1719C15.0804 30.9714 15.417 30.7852 15.7607 30.6133C16.1045 30.4414 16.4626 30.291 16.835 30.1621C17.2145 30.0332 17.612 29.9329 18.0273 29.8613C18.4499 29.7897 18.8975 29.7539 19.3701 29.7539ZM31.2295 38.3906C31.4873 38.3906 31.7415 38.4121 31.9922 38.4551C32.25 38.498 32.4792 38.5625 32.6797 38.6484C32.8802 38.7344 33.0413 38.8454 33.1631 38.9814C33.292 39.1175 33.3564 39.2786 33.3564 39.4648V41.0332C33.3564 41.2051 33.292 41.3519 33.1631 41.4736C33.0413 41.5954 32.8802 41.6956 32.6797 41.7744C32.4792 41.8532 32.25 41.9105 31.9922 41.9463C31.7415 41.9821 31.4873 42 31.2295 42C30.9717 42 30.7174 41.9821 30.4668 41.9463C30.2161 41.9105 29.9906 41.8532 29.79 41.7744C29.5895 41.6956 29.4284 41.5954 29.3066 41.4736C29.1849 41.3519 29.124 41.2051 29.124 41.0332V39.4648C29.124 39.2786 29.1849 39.1175 29.3066 38.9814C29.4284 38.8454 29.5895 38.7344 29.79 38.6484C29.9906 38.5625 30.2161 38.498 30.4668 38.4551C30.7174 38.4121 30.9717 38.3906 31.2295 38.3906ZM39.8662 29.6035H42.5947V31.4082H39.8662V42H37.3096V31.4082H35.29V29.6035H37.3096V25.8652H39.8662V29.6035ZM51.9189 29.7539C52.7712 29.7539 53.6019 29.8076 54.4111 29.915C55.2204 30.0153 55.9473 30.1908 56.5918 30.4414C57.2363 30.6849 57.7663 31.0179 58.1816 31.4404C58.597 31.863 58.8441 32.3893 58.9229 33.0195L56.4307 33.707C56.4307 33.3346 56.3018 33.0267 56.0439 32.7832C55.7933 32.5326 55.4567 32.3392 55.0342 32.2031C54.6188 32.0599 54.139 31.9596 53.5947 31.9023C53.0505 31.8451 52.4919 31.8164 51.9189 31.8164C51.3675 31.8164 50.8197 31.8451 50.2754 31.9023C49.7383 31.9525 49.2549 32.0492 48.8252 32.1924C48.4027 32.3285 48.0589 32.5182 47.7939 32.7617C47.5361 33.0052 47.4072 33.3203 47.4072 33.707V35.0176H58.9229V38.7344C58.9229 39.1569 58.8298 39.5329 58.6436 39.8623C58.4574 40.1846 58.1995 40.4674 57.8701 40.7109C57.5407 40.9473 57.1504 41.1514 56.6992 41.3232C56.2552 41.488 55.7718 41.6204 55.249 41.7207C54.7334 41.821 54.1891 41.8926 53.6162 41.9355C53.0505 41.9785 52.4847 42 51.9189 42C51.0524 42 50.2145 41.9499 49.4053 41.8496C48.596 41.7422 47.8691 41.5667 47.2246 41.3232C46.5801 41.0726 46.0501 40.7396 45.6348 40.3242C45.2266 39.9017 44.9867 39.3717 44.915 38.7344L47.4072 38.0469C47.4072 38.4408 47.5361 38.7594 47.7939 39.0029C48.0589 39.2464 48.4027 39.4362 48.8252 39.5723C49.2549 39.7083 49.7383 39.8014 50.2754 39.8516C50.8197 39.8945 51.3675 39.916 51.9189 39.916C52.4919 39.916 53.0505 39.891 53.5947 39.8408C54.139 39.7835 54.6188 39.6868 55.0342 39.5508C55.4567 39.4076 55.7933 39.2178 56.0439 38.9814C56.3018 38.738 56.4307 38.4264 56.4307 38.0469V36.7363H44.915V33.0195C44.915 32.597 45.0081 32.2246 45.1943 31.9023C45.3805 31.5729 45.6348 31.29 45.957 31.0537C46.2865 30.8102 46.6732 30.6061 47.1172 30.4414C47.5612 30.2695 48.041 30.1335 48.5566 30.0332C49.0794 29.9329 49.6237 29.8613 50.1895 29.8184C50.7624 29.7754 51.3389 29.7539 51.9189 29.7539Z" fill="white"/>
</g>
<defs>
<clipPath id="clip0_5_4">
<rect width="70" height="70" fill="white"/>
</clipPath>
</defs>
</svg>
