<svg width="150" height="50" viewBox="0 0 150 50" fill="none" xmlns="http://www.w3.org/2000/svg">
<g clip-path="url(#clip0_5_2)">
<rect width="150" height="50" fill="#2176FF"/>
<path d="M18.0127 19.7539C19.1156 19.7539 20.0609 19.847 20.8486 20.0332C21.6364 20.2122 22.2809 20.4844 22.7822 20.8496C23.2907 21.2077 23.6595 21.6553 23.8887 22.1924C24.125 22.7295 24.2432 23.3561 24.2432 24.0723V32H21.4287V24.7383C21.4287 24.3372 21.375 23.9935 21.2676 23.707C21.1602 23.4134 21.0133 23.1663 20.8271 22.9658C20.6481 22.7581 20.4368 22.5898 20.1934 22.4609C19.9499 22.332 19.6956 22.2354 19.4307 22.1709C19.1729 22.0993 18.9079 22.0527 18.6357 22.0312C18.3636 22.0026 18.1058 21.9883 17.8623 21.9883C17.404 21.9883 16.9671 22.0205 16.5518 22.085C16.1364 22.1494 15.7425 22.2389 15.3701 22.3535C14.9977 22.4609 14.6468 22.5898 14.3174 22.7402C13.988 22.8906 13.68 23.0482 13.3936 23.2129V32H10.5791V15.6504H13.3936V21.1719C13.723 20.9714 14.0596 20.7852 14.4033 20.6133C14.7471 20.4414 15.1051 20.291 15.4775 20.1621C15.8571 20.0332 16.2546 19.9329 16.6699 19.8613C17.0924 19.7897 17.54 19.7539 18.0127 19.7539ZM30.0869 27.0156C30.0869 27.4167 30.1406 27.764 30.248 28.0576C30.3555 28.3441 30.5023 28.5911 30.6885 28.7988C30.8747 28.9993 31.0859 29.1641 31.3223 29.293C31.5658 29.4219 31.82 29.5221 32.085 29.5938C32.3499 29.6582 32.6185 29.7048 32.8906 29.7334C33.1628 29.7549 33.4242 29.7656 33.6748 29.7656C34.5843 29.7656 35.4115 29.6475 36.1562 29.4111C36.901 29.1748 37.5635 28.8848 38.1436 28.541V19.7539L40.915 19.9688V32.5371C40.915 33.0456 40.8076 33.5182 40.5928 33.9551C40.3779 34.3919 40.0664 34.7679 39.6582 35.083C39.25 35.4053 38.7487 35.6559 38.1543 35.835C37.5599 36.014 36.8831 36.1035 36.124 36.1035V34.2344C36.4105 34.2344 36.6755 34.2057 36.9189 34.1484C37.1624 34.0911 37.3737 34.0016 37.5527 33.8799C37.7389 33.7653 37.8822 33.6185 37.9824 33.4395C38.0898 33.2676 38.1436 33.0671 38.1436 32.8379V30.582C37.807 30.7897 37.4632 30.9795 37.1123 31.1514C36.7686 31.3232 36.4069 31.4736 36.0273 31.6025C35.6478 31.7243 35.2503 31.821 34.835 31.8926C34.4196 31.9642 33.9827 32 33.5244 32C32.4144 32 31.4655 31.9105 30.6777 31.7314C29.89 31.5452 29.2419 31.2731 28.7334 30.915C28.2321 30.5498 27.8633 30.0986 27.627 29.5615C27.3906 29.0244 27.2725 28.3978 27.2725 27.6816V19.9688L30.0869 19.7539V27.0156ZM44.3525 20.3984C44.5531 20.3411 44.8467 20.2695 45.2334 20.1836C45.6273 20.0977 46.0928 20.0189 46.6299 19.9473C47.167 19.8685 47.765 19.804 48.4238 19.7539C49.0898 19.6966 49.8024 19.668 50.5615 19.668C51.9079 19.668 53.0931 19.7682 54.1172 19.9688C55.1484 20.1693 56.0114 20.5094 56.7061 20.9893C57.4007 21.4691 57.9235 22.1064 58.2744 22.9014C58.6325 23.6963 58.8115 24.6882 58.8115 25.877C58.8115 27.0443 58.6182 28.0218 58.2314 28.8096C57.8447 29.5902 57.3148 30.2168 56.6416 30.6895C55.9684 31.1621 55.1807 31.4987 54.2783 31.6992C53.376 31.8997 52.4092 32 51.3779 32C50.5329 32 49.7487 31.9499 49.0254 31.8496C48.3021 31.7493 47.6611 31.5846 47.1025 31.3555V36.082H44.3525V20.3984ZM50.6904 21.9668C50.2249 21.9668 49.8096 21.9811 49.4443 22.0098C49.0863 22.0384 48.7604 22.0778 48.4668 22.1279C48.1803 22.1709 47.9261 22.2246 47.7041 22.2891C47.4821 22.3464 47.2816 22.4108 47.1025 22.4824V29.3574C47.4105 29.4434 47.6969 29.515 47.9619 29.5723C48.234 29.6224 48.5241 29.6618 48.832 29.6904C49.1471 29.7191 49.5052 29.7406 49.9062 29.7549C50.3145 29.762 50.805 29.7656 51.3779 29.7656C52.223 29.7656 52.9427 29.6689 53.5371 29.4756C54.1387 29.2751 54.6292 29.0029 55.0088 28.6592C55.3955 28.3154 55.6784 27.9072 55.8574 27.4346C56.0365 26.9548 56.126 26.4355 56.126 25.877C56.126 25.1178 56.0042 24.4876 55.7607 23.9863C55.5173 23.485 55.1628 23.084 54.6973 22.7832C54.2318 22.4824 53.6624 22.2712 52.9893 22.1494C52.3161 22.0277 51.5498 21.9668 50.6904 21.9668ZM64.376 32H61.6475V19.7539H64.376V32ZM63.0225 15.5C63.5524 15.5 63.9714 15.5895 64.2793 15.7686C64.5872 15.9404 64.7412 16.2161 64.7412 16.5957V17.1328C64.7412 17.4766 64.5872 17.7236 64.2793 17.874C63.9714 18.0244 63.5524 18.0996 63.0225 18.0996C62.514 18.0996 62.1022 18.0244 61.7871 17.874C61.4792 17.7236 61.3252 17.4766 61.3252 17.1328V16.5957C61.3252 16.2161 61.4792 15.9404 61.7871 15.7686C62.1022 15.5895 62.514 15.5 63.0225 15.5ZM74.9893 23.6641L77.374 19.7539H78.1904C78.835 19.7897 79.4079 19.8363 79.9092 19.8936C80.4105 19.9508 80.8366 20.0081 81.1875 20.0654C81.5957 20.1299 81.9574 20.1979 82.2725 20.2695V22.7617C82.0863 22.6615 81.8428 22.5719 81.542 22.4932C81.2412 22.4072 80.9189 22.3392 80.5752 22.2891C80.2386 22.2318 79.8984 22.1888 79.5547 22.1602C79.2109 22.1315 78.8994 22.1172 78.6201 22.1172L76.3213 25.877L78.6201 29.6367C78.8994 29.6367 79.2109 29.6224 79.5547 29.5938C79.8984 29.5651 80.2386 29.5257 80.5752 29.4756C80.9189 29.4183 81.2412 29.3503 81.542 29.2715C81.8428 29.1855 82.0863 29.0924 82.2725 28.9922V31.4844C81.9574 31.556 81.5957 31.624 81.1875 31.6885C80.8366 31.7458 80.4105 31.8031 79.9092 31.8604C79.4079 31.9176 78.835 31.9642 78.1904 32H77.374L74.9893 28.1113L72.626 32H71.8096C71.165 31.9642 70.5921 31.9176 70.0908 31.8604C69.5895 31.8031 69.1634 31.7458 68.8125 31.6885C68.4043 31.624 68.0426 31.556 67.7275 31.4844V28.9922C67.9066 29.0924 68.1465 29.1855 68.4473 29.2715C68.748 29.3503 69.0667 29.4183 69.4033 29.4756C69.7471 29.5257 70.0908 29.5651 70.4346 29.5938C70.7855 29.6224 71.1006 29.6367 71.3799 29.6367L73.6572 25.877L71.3799 22.1172C71.1006 22.1172 70.7855 22.1315 70.4346 22.1602C70.0908 22.1888 69.7471 22.2318 69.4033 22.2891C69.0667 22.3392 68.748 22.4072 68.4473 22.4932C68.1465 22.5719 67.9066 22.6615 67.7275 22.7617V20.2695C68.0426 20.1979 68.4043 20.1299 68.8125 20.0654C69.1634 20.0081 69.5895 19.9508 70.0908 19.8936C70.5921 19.8363 71.165 19.7897 71.8096 19.7539H72.626L74.9893 23.6641ZM92.7568 19.7539C93.1221 19.7539 93.5625 19.7718 94.0781 19.8076C94.5938 19.8434 95.1273 19.9079 95.6787 20.001C96.2373 20.0869 96.7887 20.2122 97.333 20.377C97.8773 20.5345 98.3643 20.7386 98.7939 20.9893C99.2308 21.2399 99.5817 21.5443 99.8467 21.9023C100.119 22.2533 100.255 22.6686 100.255 23.1484V26.7793H87.9443V29.5293C88.8109 29.651 89.6452 29.737 90.4473 29.7871C91.2493 29.8301 92.0192 29.8516 92.7568 29.8516C93.8812 29.8516 94.8981 29.8086 95.8076 29.7227C96.7243 29.6367 97.5156 29.54 98.1816 29.4326C98.9479 29.3109 99.639 29.1712 100.255 29.0137V31.3984C98.8942 31.6133 97.5801 31.7673 96.3125 31.8604C95.0521 31.9535 93.8669 32 92.7568 32C91.6396 32 90.6263 31.9714 89.7168 31.9141C88.8073 31.8496 88.0267 31.778 87.375 31.6992C86.6159 31.6133 85.932 31.513 85.3232 31.3984V23.1484C85.3232 22.6686 85.4414 22.2533 85.6777 21.9023C85.9141 21.5443 86.2292 21.2399 86.623 20.9893C87.0169 20.7386 87.4681 20.5345 87.9766 20.377C88.4922 20.2122 89.0257 20.0869 89.5771 20.001C90.1286 19.9079 90.6764 19.8434 91.2207 19.8076C91.7721 19.7718 92.2842 19.7539 92.7568 19.7539ZM87.9443 25.0605H97.5908V23.8145C97.5908 23.5208 97.5192 23.2702 97.376 23.0625C97.2327 22.8477 97.0394 22.6686 96.7959 22.5254C96.5596 22.3822 96.2803 22.2676 95.958 22.1816C95.6429 22.0885 95.3135 22.0205 94.9697 21.9775C94.626 21.9274 94.2786 21.8952 93.9277 21.8809C93.584 21.8665 93.2581 21.8594 92.9502 21.8594C92.6279 21.8594 92.2806 21.8665 91.9082 21.8809C91.543 21.8952 91.1742 21.9274 90.8018 21.9775C90.4294 22.0277 90.0713 22.0993 89.7275 22.1924C89.3838 22.2783 89.0794 22.3965 88.8145 22.5469C88.5495 22.6901 88.3382 22.8691 88.1807 23.084C88.0231 23.2917 87.9443 23.5423 87.9443 23.8359V25.0605ZM106.356 32H103.907V15.8652H106.356V32ZM112.587 28.3906C112.845 28.3906 113.099 28.4121 113.35 28.4551C113.607 28.498 113.837 28.5625 114.037 28.6484C114.238 28.7344 114.399 28.8454 114.521 28.9814C114.649 29.1175 114.714 29.2786 114.714 29.4648V31.0332C114.714 31.2051 114.649 31.3519 114.521 31.4736C114.399 31.5954 114.238 31.6956 114.037 31.7744C113.837 31.8532 113.607 31.9105 113.35 31.9463C113.099 31.9821 112.845 32 112.587 32C112.329 32 112.075 31.9821 111.824 31.9463C111.574 31.9105 111.348 31.8532 111.147 31.7744C110.947 31.6956 110.786 31.5954 110.664 31.4736C110.542 31.3519 110.481 31.2051 110.481 31.0332V29.4648C110.481 29.2786 110.542 29.1175 110.664 28.9814C110.786 28.8454 110.947 28.7344 111.147 28.6484C111.348 28.5625 111.574 28.498 111.824 28.4551C112.075 28.4121 112.329 28.3906 112.587 28.3906ZM121.224 19.6035H123.952V21.4082H121.224V32H118.667V21.4082H116.647V19.6035H118.667V15.8652H121.224V19.6035ZM133.276 19.7539C134.129 19.7539 134.959 19.8076 135.769 19.915C136.578 20.0153 137.305 20.1908 137.949 20.4414C138.594 20.6849 139.124 21.0179 139.539 21.4404C139.954 21.863 140.201 22.3893 140.28 23.0195L137.788 23.707C137.788 23.3346 137.659 23.0267 137.401 22.7832C137.151 22.5326 136.814 22.3392 136.392 22.2031C135.976 22.0599 135.496 21.9596 134.952 21.9023C134.408 21.8451 133.849 21.8164 133.276 21.8164C132.725 21.8164 132.177 21.8451 131.633 21.9023C131.096 21.9525 130.612 22.0492 130.183 22.1924C129.76 22.3285 129.416 22.5182 129.151 22.7617C128.894 23.0052 128.765 23.3203 128.765 23.707V25.0176H140.28V28.7344C140.28 29.1569 140.187 29.5329 140.001 29.8623C139.815 30.1846 139.557 30.4674 139.228 30.7109C138.898 30.9473 138.508 31.1514 138.057 31.3232C137.613 31.488 137.129 31.6204 136.606 31.7207C136.091 31.821 135.547 31.8926 134.974 31.9355C134.408 31.9785 133.842 32 133.276 32C132.41 32 131.572 31.9499 130.763 31.8496C129.953 31.7422 129.227 31.5667 128.582 31.3232C127.938 31.0726 127.408 30.7396 126.992 30.3242C126.584 29.9017 126.344 29.3717 126.272 28.7344L128.765 28.0469C128.765 28.4408 128.894 28.7594 129.151 29.0029C129.416 29.2464 129.76 29.4362 130.183 29.5723C130.612 29.7083 131.096 29.8014 131.633 29.8516C132.177 29.8945 132.725 29.916 133.276 29.916C133.849 29.916 134.408 29.891 134.952 29.8408C135.496 29.7835 135.976 29.6868 136.392 29.5508C136.814 29.4076 137.151 29.2178 137.401 28.9814C137.659 28.738 137.788 28.4264 137.788 28.0469V26.7363H126.272V23.0195C126.272 22.597 126.366 22.2246 126.552 21.9023C126.738 21.5729 126.992 21.29 127.314 21.0537C127.644 20.8102 128.031 20.6061 128.475 20.4414C128.919 20.2695 129.398 20.1335 129.914 20.0332C130.437 19.9329 130.981 19.8613 131.547 19.8184C132.12 19.7754 132.696 19.7539 133.276 19.7539Z" fill="white"/>
</g>
<defs>
<clipPath id="clip0_5_2">
<rect width="150" height="50" fill="white"/>
</clipPath>
</defs>
</svg>
